<svg version="1.1" id="Layer_1" xmlns="http://www.w3.org/2000/svg" xmlns:xlink="http://www.w3.org/1999/xlink" x="0px" y="0px"
	 width="100px" height="100px" viewBox="0 0 100 100" enable-background="new 0 0 100 100" xml:space="preserve">
<g>
	<circle fill="#939393" cx="51.002" cy="55.42" r="2.741"/>
	<path fill="#f8ffdd" d="M76.216,55.927h-3.261c-0.276,0-0.5-0.224-0.5-0.5s0.224-0.5,0.5-0.5h3.261
		c0.036,0,0.067,0.013,0.101,0.021C76.066,41.36,65.067,30.359,51.48,30.104c0.008,0.036,0.022,0.069,0.022,0.108v3.261
		c0,0.276-0.224,0.5-0.5,0.5s-0.5-0.224-0.5-0.5v-3.261c0-0.039,0.014-0.072,0.022-0.108c-13.588,0.253-24.589,11.255-24.84,24.843
		c0.035-0.007,0.067-0.021,0.104-0.021h3.261c0.276,0,0.5,0.224,0.5,0.5s-0.224,0.5-0.5,0.5h-3.261
		c-0.037,0-0.069-0.013-0.104-0.021c0.258,13.583,11.254,24.577,24.837,24.831c-0.007-0.032-0.02-0.062-0.02-0.096V77.38
		c0-0.276,0.224-0.5,0.5-0.5s0.5,0.224,0.5,0.5v3.261c0,0.034-0.013,0.064-0.02,0.096c13.582-0.255,24.577-11.249,24.834-24.831
		C76.283,55.914,76.251,55.927,76.216,55.927z M61.908,66.327c-0.096,0.096-0.224,0.146-0.354,0.146
		c-0.068,0-0.137-0.014-0.201-0.042l-14.657-6.449c-0.014-0.006-0.021-0.02-0.035-0.027c-0.028-0.015-0.049-0.036-0.074-0.057
		c-0.046-0.039-0.083-0.08-0.113-0.132c-0.009-0.016-0.027-0.023-0.034-0.04l-6.451-14.658c-0.083-0.188-0.042-0.409,0.104-0.555
		s0.367-0.188,0.555-0.104l14.658,6.449c0.025,0.011,0.042,0.031,0.064,0.045c0.022,0.014,0.044,0.027,0.064,0.045
		c0.044,0.04,0.078,0.085,0.105,0.136c0.006,0.011,0.018,0.018,0.023,0.03l6.45,14.658C62.095,65.96,62.054,66.181,61.908,66.327z"
		/>
	<path fill="#ff4444" d="M53.965,53.162c0.481,0.63,0.778,1.407,0.778,2.258c0,2.063-1.678,3.741-3.741,3.741
		c-0.852,0-1.628-0.297-2.258-0.778l-0.976,0.977l12.812,5.637l-5.637-12.812L53.965,53.162z"/>
	<path fill="#008888" d="M55.47,18.459h0.951v-3.393c0-2.056-1.668-3.724-3.724-3.724h-3.393c-2.057,0-3.723,1.667-3.723,3.724
		v3.393h0.95c-18.457,2.209-32.768,17.91-32.768,36.961c0,20.565,16.672,37.237,37.237,37.237c20.565,0,37.237-16.672,37.237-37.237
		C88.238,36.369,73.926,20.668,55.47,18.459z M24.672,55.42c0-14.518,11.811-26.328,26.329-26.328
		c14.518,0,26.328,11.811,26.328,26.328S65.519,81.749,51.001,81.749C36.483,81.749,24.672,69.938,24.672,55.42z M79.197,74.426
		c-1.217,1.8-2.616,3.494-4.156,5.034s-3.235,2.939-5.035,4.156c-1.825,1.233-3.77,2.29-5.778,3.14
		c-0.063,0.027-0.129,0.04-0.195,0.04c-0.194,0-0.38-0.114-0.46-0.305c-0.107-0.254,0.011-0.548,0.266-0.655
		c1.949-0.825,3.836-1.851,5.608-3.047c1.748-1.182,3.393-2.54,4.888-4.035s2.853-3.14,4.035-4.888
		c0.155-0.228,0.465-0.289,0.694-0.134C79.292,73.887,79.352,74.197,79.197,74.426z M82.337,68.647
		c-0.081,0.191-0.266,0.305-0.46,0.305c-0.065,0-0.131-0.013-0.195-0.04c-0.254-0.108-0.373-0.401-0.266-0.655
		c0.844-1.992,1.492-4.075,1.926-6.193c0.056-0.27,0.318-0.443,0.59-0.389c0.271,0.055,0.445,0.32,0.389,0.59
		C83.874,64.447,83.207,66.595,82.337,68.647z"/>
</g>
</svg>
